name D:\school\WTK\thesis\model\3dpredictsim\Results\batch_windlass\Pog_s1_tmt_bCst_d00_k800_WL20_ig24_pas.mot
datacolumns 128
datarows 4
range 1.57574085 1.60725567
endheader
time	pelvis_tilt	pelvis_list	pelvis_rotation	pelvis_tx	pelvis_ty	pelvis_tz	hip_flexion_l	hip_adduction_l	hip_rotation_l	hip_flexion_r	hip_adduction_r	hip_rotation_r	knee_angle_l	knee_angle_r	ankle_angle_l	ankle_angle_r	subtalar_angle_l	subtalar_angle_r	tmt_angle_l	tmt_angle_r	mtp_angle_l	mtp_angle_r	lumbar_extension	lumbar_bending	lumbar_rotation	arm_flex_l	arm_add_l	arm_rot_l	arm_flex_r	arm_add_r	arm_rot_r	elbow_flex_l	elbow_flex_r	pro_sup_l	pro_sup_r	glut_med1_l/activation	glut_med2_l/activation	glut_med3_l/activation	glut_min1_l/activation	glut_min2_l/activation	glut_min3_l/activation	semimem_l/activation	semiten_l/activation	bifemlh_l/activation	bifemsh_l/activation	sar_l/activation	add_long_l/activation	add_brev_l/activation	add_mag1_l/activation	add_mag2_l/activation	add_mag3_l/activation	tfl_l/activation	pect_l/activation	grac_l/activation	glut_max1_l/activation	glut_max2_l/activation	glut_max3_l/activation	iliacus_l/activation	psoas_l/activation	quad_fem_l/activation	gem_l/activation	peri_l/activation	rect_fem_l/activation	vas_med_l/activation	vas_int_l/activation	vas_lat_l/activation	med_gas_l/activation	lat_gas_l/activation	soleus_l/activation	tib_post_l/activation	flex_dig_l/activation	flex_hal_l/activation	tib_ant_l/activation	per_brev_l/activation	per_long_l/activation	per_tert_l/activation	ext_dig_l/activation	ext_hal_l/activation	ercspn_l/activation	intobl_l/activation	extobl_l/activation	glut_med1_r/activation	glut_med2_r/activation	glut_med3_r/activation	glut_min1_r/activation	glut_min2_r/activation	glut_min3_r/activation	semimem_r/activation	semiten_r/activation	bifemlh_r/activation	bifemsh_r/activation	sar_r/activation	add_long_r/activation	add_brev_r/activation	add_mag1_r/activation	add_mag2_r/activation	add_mag3_r/activation	tfl_r/activation	pect_r/activation	grac_r/activation	glut_max1_r/activation	glut_max2_r/activation	glut_max3_r/activation	iliacus_r/activation	psoas_r/activation	quad_fem_r/activation	gem_r/activation	peri_r/activation	rect_fem_r/activation	vas_med_r/activation	vas_int_r/activation	vas_lat_r/activation	med_gas_r/activation	lat_gas_r/activation	soleus_r/activation	tib_post_r/activation	flex_dig_r/activation	flex_hal_r/activation	tib_ant_r/activation	per_brev_r/activation	per_long_r/activation	per_tert_r/activation	ext_dig_r/activation	ext_hal_r/activation	ercspn_r/activation	intobl_r/activation	extobl_r/activation	
          1.57574085	         -2.91719663	          1.49048534	         -6.16206157	          1.96967606	          0.85682436	          0.00184617	         31.62575331	          2.89846833	         -1.15610358	        -18.41854303	         -1.74750281	          9.76369153	        -21.23178808	         -9.65409811	         -4.59376695	         -1.82261851	         -5.01094110	         11.99723824	         -0.04658490	         -5.20056359	          0.37571833	         28.50932475	         -0.54806508	          0.40360819	          1.80305050	        -11.23499950	        -13.78347706	          6.87695793	          5.34923431	        -13.46770041	         15.15564993	         18.76556354	         34.86352760	         86.51662706	         86.51662706	          0.05685593	          0.05000339	          0.05873666	          0.05000119	          0.05000143	          0.05000285	          0.05652340	          0.05875614	          0.20491699	          0.05875489	          0.05000132	          0.10960102	          0.14482404	          0.13516737	          0.12336276	          0.12612483	          0.05000855	          0.05002635	          0.06904074	          0.05875357	          0.11949672	          0.10897972	          0.06600524	          0.06904003	          0.13917662	          0.05017643	          0.05000069	          0.05000082	          0.10402548	          0.11559184	          0.09282446	          0.06904116	          0.07438474	          0.06761308	          0.05000041	          0.05875405	          0.05035435	          0.29755647	          0.21383873	          0.13163802	          0.38399708	          0.63406189	          0.13411545	          0.05078429	          0.11094885	          0.13167125	          0.28599979	          0.08118563	          0.05000120	          0.32527938	          0.19866470	          0.08859762	          0.05001234	          0.05000121	          0.05000100	          0.07303057	          0.09603377	          0.12117306	          0.05000137	          0.05000219	          0.05000552	          0.05001114	          0.31493814	          0.05000510	          0.05000237	          0.05002144	          0.05001203	          0.05000696	          0.33760189	          0.53933819	          0.05000104	          0.05000557	          0.05000099	          0.26120661	          0.10110028	          0.05875325	          0.06197425	          0.29181141	          0.36705361	          0.23092049	          0.18466838	          0.19831460	          0.25871962	          0.05000004	          0.11969613	          0.18602900	          0.05000030	          0.05000012	          0.05000029	          0.05000003	          0.05166461	          0.05000010	
          1.58624579	         -2.90316406	          1.63177172	         -6.44988940	          1.98584087	          0.85568321	          0.00165600	         31.11843666	          3.33969065	         -0.89475336	        -18.11442430	         -2.07929620	          9.52149212	        -20.96542616	        -11.73193674	         -4.98583281	         -2.78960303	         -5.90064143	         13.10063900	         -0.06877576	         -5.65552595	          0.47340063	         29.28644760	         -0.33262206	          0.13194575	          1.87470753	        -12.25560485	        -13.77216669	          6.70465723	          5.12122645	        -13.49761054	         15.51635636	         18.69379034	         35.75482170	         86.51662706	         86.51662706	          0.11359129	          0.05000088	          0.05000035	          0.05875435	          0.05875349	          0.05000429	          0.05000096	          0.05000186	          0.19482959	          0.05000085	          0.05874656	          0.09533607	          0.23846697	          0.11502908	          0.10498332	          0.15709315	          0.05000066	          0.05880289	          0.05875440	          0.05000077	          0.19044446	          0.16562596	          0.05875426	          0.05875402	          0.11844026	          0.05000296	          0.07482763	          0.06062802	          0.21608007	          0.21287285	          0.17976870	          0.05875434	          0.06330178	          0.05753904	          0.05000005	          0.05000035	          0.05000031	          0.51236309	          0.18197771	          0.11202454	          0.42776019	          0.70922541	          0.34815139	          0.05000017	          0.09441797	          0.11205280	          0.24338847	          0.06908936	          0.05000010	          0.27681455	          0.16906466	          0.07539705	          0.05000242	          0.05000038	          0.05000030	          0.06214938	          0.08172584	          0.16048473	          0.15263328	          0.05000622	          0.05000272	          0.05000074	          0.27591645	          0.12195586	          0.05000235	          0.05000173	          0.05000106	          0.05000072	          0.28730077	          0.48523806	          0.05000021	          0.05000078	          0.05000033	          0.22228811	          0.08603984	          0.05000240	          0.10686968	          0.24833274	          0.31236419	          0.19651431	          0.15715363	          0.16876685	          0.22017167	          0.05946253	          0.10186230	          0.15831172	          0.05000064	          0.14909671	          0.05000167	          0.05000011	          0.05000027	          0.05000251	
          1.59675073	         -2.88419873	          1.77996851	         -6.71187157	          2.00223592	          0.85433712	          0.00147147	         30.49117130	          3.79737607	         -0.53822230	        -17.70597027	         -2.39369282	          9.26444161	        -21.29907399	        -14.02057433	         -5.17179553	         -3.77060194	         -6.83784049	         14.12397557	         -0.09253652	         -6.02608805	          0.58481727	         29.57470741	         -0.09922633	         -0.15555848	          1.93723414	        -13.25688429	        -13.76542541	          6.59470753	          4.82798303	        -13.53950966	         15.82835716	         18.58049784	         36.62773882	         86.51662706	         86.51662706	          0.27021843	          0.08713761	          0.16819378	          0.05000050	          0.05000051	          0.05000097	          0.05000017	          0.05000040	          0.16580093	          0.05000012	          0.05000055	          0.08113163	          0.20293692	          0.33904376	          0.29795816	          0.17804269	          0.05000188	          0.05004333	          0.05000208	          0.16080243	          0.20877349	          0.16561560	          0.05000028	          0.05000048	          0.27413955	          0.05622363	          0.06367885	          0.05875423	          0.31345433	          0.29976760	          0.25497313	          0.05000035	          0.05875344	          0.05000007	          0.17101501	          0.07291458	          0.05875506	          0.43602327	          0.15486384	          0.09533340	          0.36402596	          0.60355396	          0.29627849	          0.05000004	          0.08035011	          0.09535742	          0.20712474	          0.05879542	          0.05000434	          0.23557056	          0.14387488	          0.06416336	          0.05002301	          0.05000108	          0.05000263	          0.05288947	          0.06954940	          0.24499184	          0.29323008	          0.27312516	          0.08518816	          0.13165480	          0.23480725	          0.10378620	          0.05000251	          0.05005119	          0.05008938	          0.05875210	          0.24449424	          0.43285905	          0.05000529	          0.05873043	          0.05000338	          0.18916823	          0.08842738	          0.13163800	          0.09095163	          0.21133222	          0.26582327	          0.16723451	          0.13373847	          0.14362160	          0.18736722	          0.18223342	          0.08668618	          0.14335506	          0.05481956	          0.24214778	          0.17025488	          0.07238532	          0.05875426	          0.05000110	
          1.60725567	         -2.86256479	          1.92664141	         -6.94270060	          2.01869963	          0.85286471	          0.00130504	         29.65194940	          4.24499150	         -0.12989689	        -17.16777256	         -2.67424202	          9.01368343	        -21.83443228	        -16.54658149	         -4.89945607	         -4.72268351	         -7.82097104	         15.04971744	         -0.07287009	         -6.14236697	          0.49255100	         28.96573943	          0.13883462	         -0.44740763	          1.98767519	        -14.19651080	        -13.76550276	          6.58529507	          4.49332773	        -13.58774199	         16.09230744	         18.39247780	         37.46859892	         86.51662706	         86.51662706	          0.35993390	          0.35573901	          0.50989317	          0.21122774	          0.09344250	          0.28327894	          0.07853727	          0.10785068	          0.14109761	          0.06904096	          0.05000197	          0.06904363	          0.17270103	          0.28852813	          0.25356449	          0.18753847	          0.05000038	          0.05877406	          0.12722581	          0.29182319	          0.27031876	          0.19188242	          0.05002392	          0.05000080	          0.23329431	          0.05000069	          0.22385446	          0.05000014	          0.28922926	          0.30888696	          0.26428532	          0.05000006	          0.05000010	          0.05000003	          0.15107580	          0.06205088	          0.05000112	          0.52860936	          0.13178983	          0.08112915	          0.30978960	          0.61498727	          0.41001199	          0.05515088	          0.06904107	          0.08114958	          0.17626458	          0.05003523	          0.05000006	          0.20047190	          0.12243832	          0.05460345	          0.05001582	          0.05000120	          0.05000083	          0.05000052	          0.05918756	          0.21640684	          0.31502607	          0.23243104	          0.07249734	          0.11203926	          0.29075212	          0.08832948	          0.05000246	          0.05000166	          0.05000106	          0.05000075	          0.20806572	          0.39341777	          0.05000016	          0.05000056	          0.05000016	          0.16098302	          0.07525219	          0.11202459	          0.07740031	          0.17984462	          0.22621676	          0.14231729	          0.11381218	          0.12222309	          0.15945080	          0.20203795	          0.10999459	          0.12199843	          0.19287305	          0.27051702	          0.14488804	          0.10055513	          0.05000014	          0.05000026	
